<?xml version="1.0" encoding="UTF-8"?>
<svg version="1.1" xmlns="http://www.w3.org/2000/svg" width="2790" height="435">
<path d="M0 0 C205.1558345 0 205.1558345 0 221.1875 5.6875 C221.92033203 5.94096191 222.65316406 6.19442383 223.40820312 6.45556641 C235.2197056 10.7100553 245.54436621 16.7058714 255 25 C256.11761719 25.90298828 256.11761719 25.90298828 257.2578125 26.82421875 C279.24336191 45.09444012 290.33777796 74.39841072 294 102 C294.11214844 102.81984375 294.22429687 103.6396875 294.33984375 104.484375 C297.57496346 133.02433515 293.70650565 162.18812978 281 188 C280.52820313 188.98226562 280.05640625 189.96453125 279.5703125 190.9765625 C267.83088646 213.99114349 247.82054414 230.64095459 224 240 C220.97034794 240.89722763 218.1261876 241.50639143 215 242 C224.26691871 259.06510235 233.73608494 276.01216486 243.64697266 292.71191406 C254.54923611 311.14858189 265.20553854 329.73089381 275.89550781 348.29101562 C282.69974243 360.10280197 289.51298923 371.90915782 296.375 383.6875 C296.95145264 384.67717773 297.52790527 385.66685547 298.12182617 386.68652344 C300.67719642 391.06294093 303.24691771 395.42851164 305.875 399.76171875 C306.30248535 400.46659424 306.7299707 401.17146973 307.17041016 401.89770508 C307.94694529 403.17236216 308.72756965 404.44454141 309.51318359 405.71362305 C312 409.78399702 312 409.78399702 312 412 C299.78743314 412.39472996 287.5763932 412.69634725 275.35873604 412.88080692 C269.68444973 412.96936806 264.01453989 413.08933485 258.34277344 413.2824707 C252.86343767 413.46787558 247.3882941 413.5689542 241.90606308 413.61291313 C239.82034118 413.64421179 237.73483741 413.70534862 235.65091324 413.79741096 C219.76225066 414.47109553 219.76225066 414.47109553 215.1645813 410.35804367 C211.95682706 406.30846724 209.83204309 401.86943619 207.890872 397.10660172 C206.58391623 394.01610695 204.9283778 391.20731866 203.234375 388.3125 C202.0708499 386.20947547 200.90941559 384.10529293 199.75 382 C198.78309844 380.2521253 197.81618885 378.50425497 196.84873962 376.75668335 C196.19377512 375.57356288 195.53903938 374.39031573 194.88453674 373.2069397 C191.58954047 367.25135433 188.26599461 361.31190926 184.9375 355.375 C184.36418945 354.35212891 183.79087891 353.32925781 183.20019531 352.27539062 C182.04489413 350.21444254 180.8894583 348.15356992 179.73388672 346.09277344 C176.8206086 340.89629255 173.91047173 335.69805304 171 330.5 C169.8333482 328.41665834 168.66668154 326.33332501 167.5 324.25 C160.5 311.75 160.5 311.75 158.74926758 308.62353516 C157.58522081 306.54498466 156.4209962 304.46653376 155.2565918 302.38818359 C152.29835738 297.10748475 149.34345187 291.82496885 146.39453125 286.5390625 C145.20072459 284.40092789 144.00671635 282.26290581 142.8125 280.125 C142.23741699 279.0949585 141.66233398 278.06491699 141.06982422 277.00366211 C136.87008697 269.50190986 132.58611742 262.05225905 128.19848633 254.65869141 C125 249.21500264 125 249.21500264 125 247 C109.49 247 93.98 247 78 247 C78 301.45 78 355.9 78 412 C52.26 412 26.52 412 0 412 C0 276.04 0 140.08 0 0 Z M78 76 C78 107.35 78 138.7 78 171 C96.21579568 171.11644143 96.21579568 171.11644143 114.43164062 171.1953125 C121.86673473 171.21917673 129.30163084 171.24733697 136.73657227 171.30175781 C142.73421072 171.3453809 148.73163669 171.36917204 154.72942162 171.37950897 C157.01184621 171.3868708 159.29425984 171.40124644 161.5765934 171.42292023 C164.78609516 171.45217255 167.99473101 171.45594684 171.2043457 171.45410156 C172.13727448 171.46848267 173.07020325 171.48286377 174.03140259 171.49768066 C183.7662804 171.43754906 192.44858491 168.39486153 199.93359375 162.1015625 C210.88981249 150.95894306 214.29986721 135.96759491 214.31469727 120.81787109 C214.05414792 106.35352788 209.20283168 93.73484424 198.75 83.5625 C191.4646378 76.8162546 181.64804248 75.40036739 172.11254883 75.54589844 C171.08681763 75.54531433 170.06108643 75.54473022 169.00427246 75.54412842 C165.65483301 75.54688811 162.30631287 75.57787987 158.95703125 75.609375 C156.61863186 75.6168449 154.28022616 75.62253429 151.94181824 75.62652588 C145.81792606 75.64172306 139.69441958 75.68095382 133.57067871 75.7253418 C126.20672321 75.77365826 118.84263802 75.79185666 111.47856903 75.81515503 C100.31877862 75.85380827 89.15983277 75.93050441 78 76 Z " fill="#FEFEFE" transform="translate(340,13)"/>
<path d="M0 0 C25.74 0 51.48 0 78 0 C78 56.1 78 112.2 78 170 C126.51 170 175.02 170 225 170 C225 113.9 225 57.8 225 0 C250.74 0 276.48 0 303 0 C303 135.96 303 271.92 303 412 C277.26 412 251.52 412 225 412 C225 357.22 225 302.44 225 246 C176.49 246 127.98 246 78 246 C78 300.78 78 355.56 78 412 C52.26 412 26.52 412 0 412 C0 276.04 0 140.08 0 0 Z " fill="#FFFFFF" transform="translate(1414,13)"/>
<path d="M0 0 C0.78713379 0.32162109 1.57426758 0.64324219 2.38525391 0.97460938 C17.81757057 7.3434042 34.275672 15.0289197 47 26 C45.66795786 30.27789208 44.02862516 34.18668771 42.01904297 38.18896484 C41.7261438 38.77505524 41.43324463 39.36114563 41.13146973 39.96499634 C40.17216012 41.88223349 39.20723199 43.79658154 38.2421875 45.7109375 C37.57208847 47.04740143 36.90234484 48.38404361 36.23294067 49.72085571 C34.47743679 53.22425849 32.71713975 56.72523109 30.95581055 60.22570801 C29.15642357 63.80395586 27.36161201 67.3844969 25.56640625 70.96484375 C22.04872769 77.97880628 18.52597869 84.99020637 15 92 C11.63805622 92 10.76987081 91.45089794 8 89.69140625 C6.80842285 88.94842285 6.80842285 88.94842285 5.59277344 88.19042969 C4.7371582 87.65321289 3.88154297 87.11599609 3 86.5625 C-33.70663325 64.14169158 -76.21669131 52.41466854 -119 62 C-132.59893088 65.3347597 -145.93722324 71.05154769 -154 83 C-159.68390341 94.11923962 -160.370314 105.07181231 -157.0234375 117.046875 C-152.81838298 129.18054377 -144.59570777 135.31662942 -133.4375 141.0625 C-112.89781427 149.88206655 -89.78416618 153.33144292 -68.01513672 157.82885742 C-30.20997836 165.71194448 14.23588425 176.02304951 37.61206055 209.94897461 C44.98412831 221.21189985 50.59204447 233.72232975 53 247 C53.20367188 248.08152344 53.40734375 249.16304688 53.6171875 250.27734375 C58.92974808 284.37233868 54.83370016 321.1680079 34.62109375 349.92578125 C31.30902724 354.16363021 27.68768156 358.08940159 24 362 C23.40832031 362.66773438 22.81664062 363.33546875 22.20703125 364.0234375 C-2.78094458 391.05237382 -45.26378241 401.50245353 -80.69512939 403.12329102 C-87.50460762 403.32898916 -94.31300748 403.3373675 -101.125 403.3125 C-102.16214142 403.31067719 -103.19928284 403.30885437 -104.26785278 403.30697632 C-119.40366677 403.26218588 -134.08848779 402.79153802 -149 400 C-150.38711182 399.76651855 -150.38711182 399.76651855 -151.80224609 399.52832031 C-189.27639909 393.19946454 -228.1263077 378.23664623 -257 353 C-256.32960768 349.68530896 -255.09363981 347.0621072 -253.48046875 344.09765625 C-252.69784668 342.65422852 -252.69784668 342.65422852 -251.89941406 341.18164062 C-251.33448242 340.15232422 -250.76955078 339.12300781 -250.1875 338.0625 C-249.31496582 336.46245117 -249.31496582 336.46245117 -248.42480469 334.83007812 C-243.20406543 325.29311319 -237.81989095 315.85364715 -232.39453125 306.43212891 C-230.15710314 302.52994774 -227.95171504 298.60991282 -225.75 294.6875 C-225.36682617 294.00494141 -224.98365234 293.32238281 -224.58886719 292.61914062 C-223.72529851 291.07977078 -222.86254325 289.53994465 -222 288 C-217.86434025 288.56940243 -215.09656577 290.98756675 -211.875 293.4375 C-180.28892164 316.58052161 -141.37314989 327.22088621 -102.5625 327.25 C-101.35371689 327.25101212 -101.35371689 327.25101212 -100.12051392 327.25204468 C-77.00568745 327.22125369 -52.55097193 324.64580524 -34.625 308.3125 C-25.65320504 298.72260643 -23.49607133 287.72218939 -23.71875 275.08984375 C-24.09332915 266.99706128 -27.27372462 258.82476169 -33 253 C-48.60476925 239.72301401 -70.4748779 236.34969851 -90.10165405 233.03170776 C-94.31752104 232.31678762 -98.52754254 231.56864766 -102.73828125 230.82421875 C-103.59315628 230.67358475 -104.44803131 230.52295074 -105.32881165 230.36775208 C-193.87573031 214.71237405 -193.87573031 214.71237405 -219.49609375 179.66015625 C-239.29452427 151.3215232 -241.36454642 113.98696127 -235.609375 80.74365234 C-230.19881168 52.51979948 -215.24726019 27.13865576 -191.75 10.25 C-189.51432296 8.79241318 -187.28332046 7.37681004 -185 6 C-184.39269043 5.6292334 -183.78538086 5.2584668 -183.15966797 4.87646484 C-165.15724182 -5.90477888 -144.6560267 -11.88738994 -124 -15 C-123.24992676 -15.11569336 -122.49985352 -15.23138672 -121.72705078 -15.35058594 C-80.83174358 -21.32057447 -38.07781857 -15.86507343 0 0 Z " fill="#FEFEFE" transform="translate(1295,26)"/>
<path d="M0 0 C91.41 0 182.82 0 277 0 C277 21.12 277 42.24 277 64 C271.13887451 64.01458252 265.27774902 64.02916504 259.23901367 64.04418945 C239.91664178 64.09443042 220.5943509 64.1608548 201.27205944 64.23571491 C189.55206894 64.28072341 177.83210917 64.32012634 166.11206055 64.34643555 C155.89953543 64.36937476 145.68710716 64.40272691 135.47465879 64.44870156 C130.06482418 64.47268889 124.65508582 64.49138149 119.2451992 64.49761391 C114.15708801 64.50363991 109.06922324 64.52354922 103.98120308 64.55427551 C102.11030154 64.56309576 100.23936785 64.56677013 98.36844635 64.56500816 C95.820594 64.56336576 93.27350218 64.5799653 90.72575378 64.60127258 C89.97964834 64.59642501 89.23354289 64.59157743 88.46482819 64.58658296 C85.55843763 64.62689733 83.4997487 64.66565616 81.04472828 66.30812359 C79.29995236 69.13368625 79.50209705 72.27014771 79.4375 75.5 C79.25445765 82.61831352 79.25445765 82.61831352 77 86 C74.90625 86.44140625 74.90625 86.44140625 72.5 86.5625 C68.80555416 86.66411746 68.80555416 86.66411746 66 89 C65.66715709 91.91374379 65.66715709 91.91374379 65.68115234 95.37744141 C65.67110672 96.03122269 65.6610611 96.68500397 65.65071106 97.3585968 C65.61978211 99.52290962 65.60281746 101.68709823 65.5859375 103.8515625 C65.5672336 105.35087154 65.54766078 106.85016998 65.5272522 108.34945679 C65.47584247 112.29823562 65.43626432 116.24704863 65.39910889 120.19598389 C65.35912444 124.22449251 65.30800683 128.25285794 65.2578125 132.28125 C65.16094855 140.18740961 65.07760624 148.09362788 65 156 C69.29 156.66 73.58 157.32 78 158 C78.16435547 160.02253906 78.16435547 160.02253906 78.33203125 162.0859375 C78.49145931 163.84902433 78.6516554 165.61204183 78.8125 167.375 C78.88275391 168.26445312 78.95300781 169.15390625 79.02539062 170.0703125 C79.10595703 170.92109375 79.18652344 171.771875 79.26953125 172.6484375 C79.33760986 173.43395996 79.40568848 174.21948242 79.47583008 175.02880859 C79.87157395 177.3921737 79.87157395 177.3921737 83 179 C86.03029271 179.31362964 86.03029271 179.31362964 89.5488739 179.2784729 C90.55114737 179.2871615 90.55114737 179.2871615 91.57366878 179.29602563 C93.81698341 179.31305729 96.0600927 179.3159048 98.3034668 179.31884766 C99.90980536 179.32814367 101.51613908 179.33831184 103.12246704 179.34928894 C107.48784235 179.37663997 111.85318531 179.39175343 116.21862388 179.40471697 C120.77907263 179.42032522 125.33945508 179.44712276 129.89985657 179.4727478 C138.53768619 179.51957649 147.17552824 179.55630078 155.81342012 179.58942068 C165.64647532 179.6276132 175.479464 179.67703085 185.31246316 179.72740483 C205.54159916 179.83078554 225.77076302 179.91854399 246 180 C246 197.49 246 214.98 246 233 C238.52605591 233.01401855 238.52605591 233.01401855 230.90112305 233.02832031 C214.47248976 233.06202732 198.04398234 233.11733852 181.61545086 233.18390274 C171.65093903 233.2237452 161.68650677 233.25611117 151.72192383 233.27099609 C143.03875922 233.28398569 134.35576932 233.31088116 125.67270309 233.35461307 C121.07325617 233.3772887 116.47402522 233.39290704 111.87451744 233.39188385 C107.54799796 233.39114082 103.22195696 233.40894678 98.89556122 233.44116783 C97.30524946 233.44970786 95.71488428 233.4513891 94.1245594 233.44580269 C91.95740833 233.43920229 89.79179747 233.45698436 87.62480164 233.48101807 C85.8037996 233.48654882 85.8037996 233.48654882 83.94600964 233.49219131 C80.90991322 233.7218275 80.90991322 233.7218275 79.11297321 235.90652084 C77.92027807 238.14995528 77.58386945 239.58584648 77.48828125 242.109375 C77.43510742 243.24052734 77.43510742 243.24052734 77.38085938 244.39453125 C77.35830078 245.17183594 77.33574219 245.94914063 77.3125 246.75 C77.27833984 247.54277344 77.24417969 248.33554687 77.20898438 249.15234375 C77.12680896 251.10107504 77.06171955 253.05051362 77 255 C75.96939453 255.05607422 75.96939453 255.05607422 74.91796875 255.11328125 C74.01691406 255.17902344 73.11585938 255.24476563 72.1875 255.3125 C70.84751953 255.39951172 70.84751953 255.39951172 69.48046875 255.48828125 C66.52377212 256.09824544 65.76680925 256.57697381 64 259 C63.56280394 262.00979435 63.56280394 262.00979435 63.65942383 265.4909668 C63.65898575 266.1448941 63.65854767 266.79882141 63.65809631 267.4725647 C63.66018461 269.63175423 63.68351612 271.79016505 63.70703125 273.94921875 C63.71262709 275.44708329 63.71689725 276.94495332 63.71989441 278.44282532 C63.7313442 282.38358746 63.76081222 286.32401745 63.79400635 290.26464844 C63.82470452 294.28641262 63.83839918 298.30823053 63.85351562 302.33007812 C63.88568214 310.22022144 63.93845086 318.11003112 64 326 C68.29 326.66 72.58 327.32 77 328 C77.05607422 329.78857422 77.05607422 329.78857422 77.11328125 331.61328125 C77.17894032 333.179719 77.24538768 334.74612384 77.3125 336.3125 C77.33505859 337.09818359 77.35761719 337.88386719 77.38085938 338.69335938 C77.41630859 339.45068359 77.45175781 340.20800781 77.48828125 340.98828125 C77.51446533 341.68477783 77.54064941 342.38127441 77.56762695 343.09887695 C78.16221811 345.71326506 78.80448222 346.42349918 81 348 C83.66463308 348.30025985 86.09756269 348.41596002 88.76371765 348.39872742 C89.56257364 348.40537424 90.36142962 348.41202107 91.18449336 348.41886932 C93.87011281 348.43757064 96.55528953 348.43488928 99.2409668 348.43237305 C101.16257358 348.44138586 103.08417459 348.45171189 105.00576782 348.46325684 C110.2306452 348.49090941 115.45541374 348.50012255 120.68035483 348.50611091 C126.13768081 348.51547313 131.5949248 348.54167471 137.05220032 348.56611633 C147.39000506 348.60984437 157.72779396 348.63835259 168.06566316 348.66143972 C179.83339141 348.68845764 191.60103743 348.73237121 203.36870706 348.77772844 C227.57909351 348.870665 251.78950575 348.94230443 276 349 C276.14614442 354.43610604 276.28831435 359.87229858 276.42724609 365.30859375 C276.47473191 367.14683644 276.52319003 368.98505435 276.57275391 370.82324219 C276.64500226 373.5097013 276.71340304 376.19623899 276.78125 378.8828125 C276.81406067 380.05772751 276.81406067 380.05772751 276.84753418 381.25637817 C277.09807606 391.50780069 277 401.73673041 277 412 C185.59 412 94.18 412 0 412 C0 276.04 0 140.08 0 0 Z " fill="#FEFEFE" transform="translate(717,13)"/>
<path d="M0 0 C89.43 0 178.86 0 271 0 C271 25.08 271 50.16 271 76 C207.31 76 143.62 76 78 76 C78 108.01 78 140.02 78 173 C131.46 173 184.92 173 240 173 C240 198.08 240 223.16 240 249 C186.54 249 133.08 249 78 249 C78 302.79 78 356.58 78 412 C52.26 412 26.52 412 0 412 C0 276.04 0 140.08 0 0 Z " fill="#FEFEFE" transform="translate(11,13)"/>
<path d="M0 0 C16.5 0 33 0 50 0 C50.00586624 3.49072586 50.01173248 6.98145172 50.01777649 10.57795715 C50.07305513 42.65373334 50.14307359 74.72944981 50.22898628 106.80515896 C50.24025326 111.01667144 50.2513919 115.22818424 50.26245117 119.43969727 C50.26465486 120.27806673 50.26685854 121.1164362 50.269129 121.9802108 C50.30441657 135.52120493 50.32932878 149.062199 50.35034702 162.60322193 C50.37217735 176.51719291 50.40529579 190.43110469 50.44870156 204.34502524 C50.47509427 212.917529 50.49288055 221.48995912 50.49934604 230.06250145 C50.5046381 235.95616662 50.52098137 241.84973944 50.54566566 247.74335495 C50.55955152 251.13406482 50.56725111 254.52447127 50.56500816 257.9152298 C50.55701141 275.59487669 50.66414971 293.52429172 56.75 310.375 C57.00676514 311.10920166 57.26353027 311.84340332 57.52807617 312.59985352 C64.90100661 332.94470669 77.85770862 348.27727309 97.546875 357.50390625 C125.56809816 369.64432307 159.8830186 369.70306418 188.34667969 358.89794922 C195.23602252 356.1032158 201.13457815 352.60663268 207 348 C207.79535156 347.39671875 208.59070312 346.7934375 209.41015625 346.171875 C227.38194784 331.49850828 235.05948757 307.68183292 237.78324306 285.40795612 C238.2060034 280.71150506 238.15394222 276.00635401 238.15821838 271.29418945 C238.16315636 270.13170874 238.16809434 268.96922802 238.17318195 267.77152061 C238.18583869 264.56294809 238.19415762 261.35439883 238.20060861 258.14580894 C238.2086486 254.67896538 238.22233386 251.21214346 238.23532104 247.74531555 C238.25703297 241.74478843 238.27519665 235.74425906 238.29092598 229.74371338 C238.3136729 221.06801412 238.34180894 212.39233886 238.37124526 203.71666002 C238.41886218 189.63973058 238.46214228 175.5627913 238.50268555 161.48583984 C238.54207054 147.81428258 238.58350393 134.14273405 238.62768555 120.47119141 C238.63177196 119.20636447 238.63177196 119.20636447 238.63594092 117.91598547 C238.64962089 113.68565827 238.66334107 109.4553312 238.67708123 105.2250042 C238.79095328 70.15002075 238.89751496 35.07501845 239 0 C255.5 0 272 0 289 0 C289.14993377 33.367913 289.29589461 66.73583251 289.4332476 100.10379905 C289.44951607 104.05479524 289.46583217 108.00579124 289.48217773 111.95678711 C289.48543066 112.74326688 289.48868358 113.52974666 289.49203508 114.34005915 C289.54462649 127.02802676 289.60106512 139.71597442 289.6589582 152.40391881 C289.71839858 165.45000733 289.77362882 178.49610891 289.82505554 191.5422315 C289.85684661 199.57424536 289.8918129 207.60623191 289.93101191 215.63821309 C289.96085713 221.8261744 289.98480811 228.01414657 290.00670624 234.20214081 C290.0165012 236.71936534 290.02812128 239.23658364 290.04183006 241.7537899 C290.262333 282.87504811 290.262333 282.87504811 287.3125 301.6875 C287.13952393 302.81196533 286.96654785 303.93643066 286.78833008 305.0949707 C281.21436658 339.19037975 265.35404096 371.26804872 237.04956055 391.92333984 C230.09726345 396.81509714 222.76657368 400.5810192 215 404 C214.38640625 404.27682617 213.7728125 404.55365234 213.140625 404.83886719 C195.73976887 412.54469503 175.52178771 416.10638386 156.55078125 416.203125 C155.65747604 416.20882507 154.76417084 416.21452515 153.84379578 416.22039795 C151.95536462 416.22980217 150.0669174 416.23636361 148.1784668 416.24023438 C145.36540761 416.24981972 142.55311887 416.28083619 139.74023438 416.3125 C123.41999518 416.40874102 107.00256454 415.09566847 91.3125 410.3125 C90.45857666 410.05903809 89.60465332 409.80557617 88.72485352 409.54443359 C75.10060919 405.34208087 62.43122821 399.59798683 51 391 C50.07960938 390.31292969 49.15921875 389.62585938 48.2109375 388.91796875 C18.3686431 365.59054144 5.27817075 330.61980589 0.7478314 293.95940173 C0.00551168 287.26927624 -0.13833583 280.66669354 -0.12025452 273.93978882 C-0.12110894 272.76334859 -0.12196337 271.58690837 -0.12284368 270.37481844 C-0.12419819 267.13654668 -0.1211028 263.89831568 -0.11606562 260.66004872 C-0.11172419 257.157806 -0.11321015 253.65556498 -0.1139679 250.15332031 C-0.1144908 244.09443086 -0.11136845 238.03555223 -0.10573006 231.9766655 C-0.09758334 223.21666516 -0.09499659 214.45667003 -0.09374207 205.69666632 C-0.09155652 191.48218214 -0.08490995 177.26770371 -0.07543945 163.05322266 C-0.06625245 149.24983753 -0.05917792 135.44645397 -0.05493164 121.64306641 C-0.05466892 120.79141291 -0.05440619 119.93975941 -0.05413551 119.06229822 C-0.05283042 114.7895602 -0.05156672 110.51682216 -0.05032361 106.24408412 C-0.0399665 70.82938514 -0.02208542 35.41469349 0 0 Z " fill="#FEFEFE" transform="translate(2154,13)"/>
<path d="M0 0 C0.82886719 0.70769531 1.65773438 1.41539063 2.51171875 2.14453125 C20.02729612 17.46060273 32.87422134 36.76598969 41.3125 58.375 C41.62582275 59.16326172 41.93914551 59.95152344 42.26196289 60.76367188 C45.49936241 69.43364056 46.93822131 77.72199588 49 87 C32.17 87 15.34 87 -2 87 C-3.65 83.04 -5.3 79.08 -7 75 C-18.04810226 50.26846833 -36.13179173 32.53275198 -61 22 C-84.89670293 12.94536892 -110.56351727 13.67614891 -134 24 C-142.6824271 28.53989609 -150.08280878 34.08280878 -157 41 C-157.69738281 41.69738281 -158.39476562 42.39476563 -159.11328125 43.11328125 C-178.61324679 63.82489514 -185.13700823 92.12327845 -185.16113281 119.74951172 C-185.16576945 121.13033681 -185.17079522 122.51116065 -185.17617798 123.89198303 C-185.18922859 127.62606943 -185.19573332 131.36013791 -185.20018864 135.09424353 C-185.20313321 137.43621524 -185.20724068 139.77818222 -185.21169281 142.12015152 C-185.22535271 149.47352729 -185.23502492 156.82689204 -185.2388947 164.18027961 C-185.24336224 172.61950572 -185.26085559 181.0585688 -185.2898953 189.49774539 C-185.31165137 196.05185257 -185.32160645 202.60591436 -185.32293582 209.16005719 C-185.32397459 213.05955686 -185.32968019 216.95890302 -185.34775543 220.85836411 C-185.5467744 249.04665187 -185.5467744 249.04665187 -179.1875 276.375 C-178.92888184 277.1162915 -178.67026367 277.85758301 -178.40380859 278.62133789 C-174.49348516 289.53400612 -169.22915804 298.93020762 -162 308 C-161.32195312 308.8559375 -160.64390625 309.711875 -159.9453125 310.59375 C-146.91401217 326.05946907 -127.80559341 335.07232254 -108 338 C-77.7377933 339.97857679 -52.84309443 333.72721836 -29.8125 313.5625 C-16.98537856 301.63587851 -10.06597716 288.20813641 -4 272 C-3.34 270.35 -2.68 268.7 -2 267 C14.83 267 31.66 267 49 267 C45.46033178 283.5184517 45.46033178 283.5184517 43.3125 289.8125 C43.05758789 290.56184814 42.80267578 291.31119629 42.54003906 292.08325195 C35.61803449 311.82171601 25.0264332 328.56369336 11 344 C10.21109375 344.87269531 9.4221875 345.74539063 8.609375 346.64453125 C-13.72240811 370.12248203 -47.51627672 385.82658652 -79.91137695 387.16113281 C-81.27027729 387.18062868 -82.62926898 387.19441505 -83.98828125 387.203125 C-84.72493011 387.21013931 -85.46157898 387.21715363 -86.22055054 387.22438049 C-88.58459661 387.24178491 -90.94839222 387.24823254 -93.3125 387.25 C-94.11990631 387.25067474 -94.92731262 387.25134949 -95.75918579 387.25204468 C-107.74499431 387.23611462 -119.30406518 386.85322487 -131 384 C-132.02552979 383.76651855 -132.02552979 383.76651855 -133.07177734 383.52832031 C-150.72942779 379.40696794 -167.75360551 371.1842599 -182 360 C-182.81090088 359.36408936 -182.81090088 359.36408936 -183.63818359 358.71533203 C-196.45322485 348.55756547 -206.52226508 336.95870502 -215 323 C-215.39074707 322.35853027 -215.78149414 321.71706055 -216.18408203 321.05615234 C-231.85971321 294.7766112 -237.13411034 264.32703731 -237.16113281 234.09692383 C-237.16577428 232.73524343 -237.17080067 231.37356429 -237.17617798 230.0118866 C-237.18918423 226.34162251 -237.19572476 222.67137663 -237.20018864 219.00109315 C-237.20314116 216.69440301 -237.20725001 214.38771761 -237.21169281 212.08102989 C-237.22534256 204.82482837 -237.23501907 197.56863794 -237.2388947 190.31242448 C-237.24335635 182.01025844 -237.26082632 173.70825861 -237.2898953 165.40614301 C-237.31172193 158.94190206 -237.32161015 152.47770712 -237.32293582 146.01342982 C-237.32396988 142.17526261 -237.32956964 138.33725205 -237.34775543 134.49912453 C-237.56092837 86.73709799 -229.88013275 42.8662095 -196 7 C-195.31421875 6.24976563 -194.6284375 5.49953125 -193.921875 4.7265625 C-144.89019803 -47.02909652 -52.23835467 -45.29697194 0 0 Z " fill="#FEFEFE" transform="translate(2041,42)"/>
<path d="M0 0 C96.03 0 192.06 0 291 0 C291 15.84 291 31.68 291 48 C251.4 48 211.8 48 171 48 C171 168.12 171 288.24 171 412 C154.17 412 137.34 412 120 412 C120 291.88 120 171.76 120 48 C80.4 48 40.8 48 0 48 C0 32.16 0 16.32 0 0 Z " fill="#FEFEFE" transform="translate(2482,13)"/>
<path d="M0 0 C0.78375 0.04125 1.5675 0.0825 2.375 0.125 C4.375 5.875 4.375 5.875 4.375 8.125 C8.11613377 7.14517925 10.67902292 6.02819323 13.5 3.4375 C16.375 1.125 16.375 1.125 18.375 1 C20.375 2.125 20.375 2.125 23.3125 4.625 C26.26647 7.03640408 27.66799037 7.79791091 31.375 8.125 C31.519375 6.990625 31.66375 5.85625 31.8125 4.6875 C32.375 1.125 32.375 1.125 33.375 0.125 C35.8125 -0.125 35.8125 -0.125 38.375 0.125 C40.5269437 3.35291555 40.57586443 4.40900809 40.375 8.125 C43.93867709 8.07298206 47.49995681 7.97787319 51.0625 7.875 C52.06990234 7.86082031 53.07730469 7.84664063 54.11523438 7.83203125 C59.8924115 7.64136534 63.09813109 7.35194437 67.375 3.125 C70.8125 2.625 70.8125 2.625 74.375 3.125 C75.21417969 3.77984375 76.05335938 4.4346875 76.91796875 5.109375 C81.26627557 8.15081365 86.11547336 7.79846912 91.25 7.875 C92.71179688 7.91947266 92.71179688 7.91947266 94.203125 7.96484375 C96.59383127 8.03515864 98.98358434 8.08804234 101.375 8.125 C101.560625 6.701875 101.560625 6.701875 101.75 5.25 C102.375 2.125 102.375 2.125 104.375 0.125 C107 0.5 107 0.5 109.375 1.125 C110.365 4.095 110.365 4.095 111.375 7.125 C115.10379222 6.80538924 116.22607723 6.28136891 118.875 3.5 C121.375 1.125 121.375 1.125 123.8125 1 C127.18765617 2.48177588 129.57833829 4.74486237 132.375 7.125 C134.59235439 7.97779338 134.59235439 7.97779338 136.375 8.125 C136.519375 6.990625 136.66375 5.85625 136.8125 4.6875 C137.375 1.125 137.375 1.125 138.375 0.125 C140.8125 -0.0625 140.8125 -0.0625 143.375 0.125 C145.77679685 2.52679685 145.63098087 3.09450007 145.640625 6.37109375 C145.64320313 7.20833984 145.64578125 8.04558594 145.6484375 8.90820312 C145.64070312 9.78412109 145.63296875 10.66003906 145.625 11.5625 C145.63273438 12.43455078 145.64046875 13.30660156 145.6484375 14.20507812 C145.64585937 15.04361328 145.64328125 15.88214844 145.640625 16.74609375 C145.63836914 17.5136499 145.63611328 18.28120605 145.63378906 19.07202148 C145.375 21.125 145.375 21.125 143.375 24.125 C141 23.875 141 23.875 138.375 23.125 C136.5808242 20.56189172 136.375 19.29380694 136.375 16.125 C131.31159886 18.01955174 131.31159886 18.01955174 127.1875 21.375 C125.375 23.125 125.375 23.125 123.5 23.1875 C121.375 22.125 121.375 22.125 118.4375 19.625 C115.48353 17.21359592 114.08200963 16.45208909 110.375 16.125 C110.41625 17.07375 110.4575 18.0225 110.5 19 C110.375 22.125 110.375 22.125 108.375 24.125 C105.25 23.75 105.25 23.75 102.375 23.125 C101.88 19.66 101.88 19.66 101.375 16.125 C97.99877072 16.17717727 94.62504113 16.27232018 91.25 16.375 C89.82300781 16.39626953 89.82300781 16.39626953 88.3671875 16.41796875 C82.33552121 16.62740161 79.10495252 17.38229614 74.375 21.125 C71.375 21.625 71.375 21.625 68.375 21.125 C67.55773437 20.47015625 66.74046875 19.8153125 65.8984375 19.140625 C61.40746543 16.02999499 56.28038853 16.44994745 51 16.375 C49.46666016 16.33052734 49.46666016 16.33052734 47.90234375 16.28515625 C45.39315147 16.21480506 42.88486946 16.16193794 40.375 16.125 C40.045 18.435 39.715 20.745 39.375 23.125 C37 23.75 37 23.75 34.375 24.125 C32.375 22.125 32.375 22.125 32.25 19 C32.29125 18.05125 32.3325 17.1025 32.375 16.125 C28.15128768 17.05421671 25.39300193 17.86114273 22.1875 20.8125 C19.375 23.125 19.375 23.125 17.375 23.25 C14.95593468 21.88927576 13.03918666 20.10229023 10.96875 18.26953125 C8.58958958 16.56096751 6.24401929 16.32992995 3.375 16.125 C3.375 18.435 3.375 20.745 3.375 23.125 C1.0625 23.75 1.0625 23.75 -1.625 24.125 C-2.615 23.465 -3.605 22.805 -4.625 22.125 C-4.99731445 20.09375 -4.99731445 20.09375 -4.98828125 17.625 C-4.98763672 16.738125 -4.98699219 15.85125 -4.98632812 14.9375 C-4.97021484 14.009375 -4.95410156 13.08125 -4.9375 12.125 C-4.94233398 10.7328125 -4.94233398 10.7328125 -4.94726562 9.3125 C-4.87467544 0.2321274 -4.87467544 0.2321274 0 0 Z " fill="#FEFEFE" transform="translate(810.625,297.875)"/>
<path d="M0 0 C1.9375 1 1.9375 1 3.1875 3.375 C3.9375 6 3.9375 6 3.9375 9 C7.41577876 7.42649294 10.26054642 5.81607484 13.0625 3.25 C15.9375 1 15.9375 1 17.9375 0.875 C19.9375 2 19.9375 2 22.875 4.5 C25.82897 6.91140408 27.23049037 7.67291091 30.9375 8 C31.123125 6.576875 31.123125 6.576875 31.3125 5.125 C31.9375 2 31.9375 2 33.9375 0 C36.5 0.25 36.5 0.25 38.9375 1 C40.29189668 3.70879335 40.00251451 6.00933268 39.9375 9 C40.58847656 8.84144531 41.23945312 8.68289062 41.91015625 8.51953125 C46.4400989 7.74213464 51.02198419 7.71832553 55.61132812 7.65820312 C60.88284338 7.4567141 63.58256118 6.16033296 67.9375 3 C71.60841255 3.0632916 73.93752809 3.19629507 76.83691406 5.52661133 C79.37198984 7.30475897 80.85209148 7.41812779 83.921875 7.51171875 C84.85644531 7.54716797 85.79101562 7.58261719 86.75390625 7.61914062 C87.72199219 7.64169922 88.69007813 7.66425781 89.6875 7.6875 C90.67105469 7.72166016 91.65460938 7.75582031 92.66796875 7.79101562 C95.09103199 7.87335273 97.51373998 7.94254838 99.9375 8 C100.39125 6.86820313 100.845 5.73640625 101.3125 4.5703125 C102.9375 1 102.9375 1 104.9375 -0.125 C106.9375 0 106.9375 0 108.625 1.125 C110.21005401 3.38936287 110.57037028 5.28324005 110.9375 8 C115.53056496 6.5140084 118.37319245 4.14985318 121.9375 1 C124.91125268 1.99125089 126.73269701 2.78879692 128.9375 5.0625 C131.26652075 7.31873885 132.76611733 7.64762415 135.9375 8 C136.5975 5.69 137.2575 3.38 137.9375 1 C139.75 0.3125 139.75 0.3125 141.9375 0 C144.01683712 1.5547063 144.84205483 2.47370594 145.30981445 5.05297852 C145.3068335 5.82053467 145.30385254 6.58809082 145.30078125 7.37890625 C145.29981445 8.63670898 145.29981445 8.63670898 145.29882812 9.91992188 C145.28271484 10.79197266 145.26660156 11.66402344 145.25 12.5625 C145.25322266 13.43841797 145.25644531 14.31433594 145.25976562 15.21679688 C145.20458681 21.73291319 145.20458681 21.73291319 142.9375 24 C140.3125 24.125 140.3125 24.125 137.9375 24 C136.17287317 20.91190305 135.9375 19.76687864 135.9375 16 C130.84811189 17.59043379 127.06293357 20.7446951 122.9375 24 C122.32261719 23.4946875 121.70773437 22.989375 121.07421875 22.46875 C120.26597656 21.8190625 119.45773437 21.169375 118.625 20.5 C117.82449219 19.8503125 117.02398438 19.200625 116.19921875 18.53125 C113.97868537 16.71968662 113.97868537 16.71968662 110.9375 17 C109.9475 20.465 109.9475 20.465 108.9375 24 C106.9575 24 104.9775 24 102.9375 24 C100.9375 18.25 100.9375 18.25 100.9375 16 C97.8945141 16.08737286 94.85431634 16.19430626 91.8125 16.3125 C90.9565625 16.33505859 90.100625 16.35761719 89.21875 16.38085938 C83.92805382 16.60469652 78.91687523 17.02062477 74.9375 21 C69.34775641 21.46581197 69.34775641 21.46581197 66.9375 21 C66.25816406 20.34902344 65.57882812 19.69804687 64.87890625 19.02734375 C60.39250277 15.93512143 55.95441885 16.32501421 50.625 16.25 C49.59826172 16.22035156 48.57152344 16.19070312 47.51367188 16.16015625 C44.98820325 16.08967806 42.46364585 16.0368734 39.9375 16 C39.97875 16.94875 40.02 17.8975 40.0625 18.875 C39.9375 22 39.9375 22 37.9375 24 C35.3125 24.125 35.3125 24.125 32.9375 24 C32.2775 21.69 31.6175 19.38 30.9375 17 C24.88212479 17.30276876 21.42266542 20.27754038 16.9375 24 C16.33421875 23.4946875 15.7309375 22.989375 15.109375 22.46875 C14.31015625 21.8190625 13.5109375 21.169375 12.6875 20.5 C11.89859375 19.8503125 11.1096875 19.200625 10.296875 18.53125 C7.84707006 16.63706504 7.84707006 16.63706504 3.9375 17 C3.2775 19.31 2.6175 21.62 1.9375 24 C-0.4375 24.125 -0.4375 24.125 -3.0625 24 C-5.8824387 21.1800613 -5.35212838 19.07095841 -5.38476562 15.21679688 C-5.37993164 13.90291992 -5.37993164 13.90291992 -5.375 12.5625 C-5.39111328 11.69044922 -5.40722656 10.81839844 -5.42382812 9.91992188 C-5.42447266 9.08138672 -5.42511719 8.24285156 -5.42578125 7.37890625 C-5.42876221 6.6113501 -5.43174316 5.84379395 -5.43481445 5.05297852 C-4.85080161 1.83267425 -3.34660897 0 0 0 Z " fill="#FEFEFE" transform="translate(811.0625,125)"/>
</svg>
